{"title":"Chappie (No Cinavia) &amp; BluRay Xtras [2015] 1080p","uid":12117929,"size":6806070049,"categoryP":"video","categoryS":"movies","magnet":"?xt=urn:btih:8977d2226dbe668540b2b618301345abd3465e41&amp;dn=Chappie+%28No+Cinavia%29+%26amp%3B+BluRay+Xtras+%5B2015%5D+1080p&amp;tr=udp%3A%2F%2Ftracker.openbittorrent.com%3A80&amp;tr=udp%3A%2F%2Fopen.demonii.com%3A1337&amp;tr=udp%3A%2F%2Ftracker.coppersurfer.tk%3A6969&amp;tr=udp%3A%2F%2Fexodus.desync.com%3A6969","seeders":0,"leechers":1,"uploader":"AlienMethod","files":26,"time":1436762268,"description":"x264/mp4\nCinavia Removed (CinEx HD)\n6-Channel AC3@640kbps (audio 1)\n2-Channel AAC@128kbps (audio 2)\nEnglish Subs Incl.\nBluRay Extras (Making of, etc.) Incl.\n\n&quot;In the near future, crime is patrolled by a mechanized police force. When\none police droid, Chappie, is stolen and given new programming, he becomes the first \nrobot with the ability to think and feel for himself.&quot;\n\n\n\nGeneral\nComplete name : F:TorrentsChappie (NoCinavia) &amp; BluRay Xtras [2015] 1080p\nCHAPPIE (NoCinavia) [2015] 1080p.mp4\nFormat : MPEG-4\nFormat profile : Base Media\nCodec ID : isom\nFile size : 3.97 GiB\nDuration : 2h 0mn\nOverall bit rate mode : Variable\nOverall bit rate : 4 718 Kbps\nEncoded date : UTC 2015-07-12 23:39:43\nTagged date : UTC 2015-07-12 23:39:43\nWriting application : My MP4Box GUI 0.6.0.6 \n\nVideo\nID : 1\nFormat : AVC\nFormat/Info : Advanced Video Codec\nFormat profile : &lt;a class=&quot;__cf_email__&quot; href=&quot;/cdn-cgi/l/email-protection&quot; data-cfemail=&quot;4901202e2109057d6779&quot;&gt;[email&amp;#160;protected]&lt;/a&gt;&lt;script data-cfhash='f9e31' type=&quot;text/javascript&quot;&gt;\n/* &lt;![CDATA[ */!function(){try{var t=&quot;currentScript&quot;in document?document.currentScript:function(){for(var t=document.getElementsByTagName(&quot;script&quot;),e=t.length;e--;)if(t[e].getAttribute(&quot;data-cfhash&quot;))return t[e]}();if(t&amp;&amp;t.previousSibling){var e,r,n,i,c=t.previousSibling,a=c.getAttribute(&quot;data-cfemail&quot;);if(a){for(e=&quot;&quot;,r=parseInt(a.substr(0,2),16),n=2;a.length-n;n+=2)i=parseInt(a.substr(n,2),16)^r,e+=String.fromCharCode(i);e=document.createTextNode(e),c.parentNode.replaceChild(e,c)}t.parentNode.removeChild(t);}}catch(u){}}()/* ]]&gt; */&lt;/script&gt;\nFormat settings, CABAC : Yes\nFormat settings, ReFrames : 4 frames\nCodec ID : avc1\nCodec ID/Info : Advanced Video Coding\nDuration : 2h 0mn\nBit rate : 3 951 Kbps\nMaximum bit rate : 41.1 Mbps\nWidth : 1 920 pixels\nHeight : 800 pixels\nDisplay aspect ratio : 2.40:1\nFrame rate mode : Constant\nFrame rate : 23.976 fps\nColor space : YUV\nChroma subsampling : 4:2:0\nBit depth : 8 bits\nScan type : Progressive\nBits/(Pixel*Frame) : 0.107\nStream size : 3.32 GiB (84%)\nTitle : VideoEncode.h264\nWriting library : x264 core 142 r2479 dd79a61\nEncoded date : UTC 2015-07-12 23:39:43\nTagged date : UTC 2015-07-12 23:40:19\n\nAudio #1\nID : 2\nFormat : AC-3\nFormat/Info : Audio Coding 3\nMode extension : CM (complete main)\nFormat settings, Endianness : Big\nCodec ID : ac-3\nDuration : 2h 0mn\nBit rate mode : Constant\nBit rate : 640 Kbps\nChannel(s) : 6 channels\nChannel positions : Front: L C R, Side: L R, LFE\nSampling rate : 48.0 KHz\nBit depth : 16 bits\nCompression mode : Lossy\nStream size : 551 MiB (14%)\nTitle : AC35.1.ac3\nEncoded date : UTC 2015-07-12 23:40:07\nTagged date : UTC 2015-07-12 23:40:19\n\nAudio #2\nID : 3\nFormat : AAC\nFormat/Info : Advanced Audio Codec\nFormat profile : LC\nCodec ID : 40\nDuration : 2h 0mn\nBit rate mode : Variable\nBit rate : 126 Kbps\nMaximum bit rate : 159 Kbps\nChannel(s) : 2 channels\nChannel positions : Front: L R\nSampling rate : 48.0 KHz\nCompression mode : Lossy\nStream size : 108 MiB (3%)\nTitle : AAC2.0.m4a\nEncoded date : UTC 2015-07-12 23:40:17\nTagged date : UTC 2015-07-12 23:40:19","torrent":{"xt":"urn:btih:8977d2226dbe668540b2b618301345abd3465e41","amp;dn":"Chappie+%28No+Cinavia%29+%26amp%3B+BluRay+Xtras+%5B2015%5D+1080p","amp;tr":["udp%3A%2F%2Ftracker.openbittorrent.com%3A80","udp%3A%2F%2Fopen.demonii.com%3A1337","udp%3A%2F%2Ftracker.coppersurfer.tk%3A6969","udp%3A%2F%2Fexodus.desync.com%3A6969"],"infoHash":"8977d2226dbe668540b2b618301345abd3465e41","infoHashBuffer":{"type":"Buffer","data":[137,119,210,34,109,190,102,133,64,178,182,24,48,19,69,171,211,70,94,65]},"announce":[],"urlList":[]}}